<?xml version="1.0" encoding="UTF-8"?>
<!--Generator: Apple Native CoreSVG 232.5-->
<!DOCTYPE svg
PUBLIC "-//W3C//DTD SVG 1.1//EN"
       "http://www.w3.org/Graphics/SVG/1.1/DTD/svg11.dtd">
<svg version="1.1" xmlns="http://www.w3.org/2000/svg" xmlns:xlink="http://www.w3.org/1999/xlink" width="18.5234" height="13.5078">
 <g>
  <rect height="13.5078" opacity="0" width="18.5234" x="0" y="0"/>
  <path d="M10.4609 1.17969C10.7891 1.17969 11.0469 0.921875 11.0469 0.585938C11.0469 0.257812 10.7891 0 10.4609 0L0.59375 0C0.265625 0 0 0.257812 0 0.585938C0 0.921875 0.265625 1.17969 0.59375 1.17969ZM10.4609 5.27344C10.7891 5.27344 11.0469 5.01562 11.0469 4.67969C11.0469 4.35156 10.7891 4.09375 10.4609 4.09375L0.59375 4.09375C0.265625 4.09375 0 4.35156 0 4.67969C0 5.01562 0.265625 5.27344 0.59375 5.27344ZM10.4609 9.36719C10.7891 9.36719 11.0469 9.10156 11.0469 8.77344C11.0469 8.44531 10.7891 8.1875 10.4609 8.1875L0.59375 8.1875C0.265625 8.1875 0 8.44531 0 8.77344C0 9.10156 0.265625 9.36719 0.59375 9.36719ZM6.46875 13.4531C6.79688 13.4531 7.05469 13.1953 7.05469 12.8672C7.05469 12.5391 6.79688 12.2734 6.46875 12.2734L0.59375 12.2734C0.265625 12.2734 0 12.5391 0 12.8672C0 13.1953 0.265625 13.4531 0.59375 13.4531Z" fill="#ffffff" fill-opacity="0.85"/>
  <path d="M16.8984 9.125C17.4688 9.50781 18.1172 9.28906 18.1172 8.59375L18.1172 4.89062C18.1172 4.17188 17.5 3.94531 16.8984 4.35156L14.3125 6.10938C13.8672 6.41406 13.8516 7.08594 14.3125 7.39844Z" fill="#ffffff" fill-opacity="0.85"/>
 </g>
</svg>
