<?xml version="1.0" encoding="UTF-8"?>
<!--Generator: Apple Native CoreSVG 232.5-->
<!DOCTYPE svg
PUBLIC "-//W3C//DTD SVG 1.1//EN"
       "http://www.w3.org/Graphics/SVG/1.1/DTD/svg11.dtd">
<svg version="1.1" xmlns="http://www.w3.org/2000/svg" xmlns:xlink="http://www.w3.org/1999/xlink" width="18.4689" height="13.5078">
 <g>
  <rect height="13.5078" opacity="0" width="18.4689" x="0" y="0"/>
  <path d="M7.60945 1.17969L17.4688 1.17969C17.7969 1.17969 18.0626 0.921875 18.0626 0.585938C18.0626 0.257812 17.7969 0 17.4688 0L7.60945 0C7.27351 0 7.0157 0.257812 7.0157 0.585938C7.0157 0.921875 7.27351 1.17969 7.60945 1.17969ZM7.60945 5.27344L17.4688 5.27344C17.7969 5.27344 18.0626 5.01562 18.0626 4.67969C18.0626 4.35156 17.7969 4.09375 17.4688 4.09375L7.60945 4.09375C7.27351 4.09375 7.0157 4.35156 7.0157 4.67969C7.0157 5.01562 7.27351 5.27344 7.60945 5.27344ZM7.60945 9.36719L17.4688 9.36719C17.7969 9.36719 18.0626 9.10156 18.0626 8.77344C18.0626 8.44531 17.7969 8.1875 17.4688 8.1875L7.60945 8.1875C7.27351 8.1875 7.0157 8.44531 7.0157 8.77344C7.0157 9.10156 7.27351 9.36719 7.60945 9.36719ZM7.60945 13.4531L13.4766 13.4531C13.8048 13.4531 14.0782 13.1953 14.0782 12.8672C14.0782 12.5391 13.8048 12.2734 13.4766 12.2734L7.60945 12.2734C7.27351 12.2734 7.0157 12.5391 7.0157 12.8672C7.0157 13.1953 7.27351 13.4531 7.60945 13.4531Z" fill="#ffffff" fill-opacity="0.85"/>
  <path d="M1.22663 9.125L3.81257 7.39844C4.27351 7.08594 4.25788 6.42188 3.81257 6.10938L1.22663 4.35156C0.625072 3.94531-0.00774089 4.17188 7.16088e-05 4.89062L7.16088e-05 8.59375C-0.00774089 9.28906 0.648509 9.5 1.22663 9.125Z" fill="#ffffff" fill-opacity="0.85"/>
 </g>
</svg>
