<?xml version="1.0" encoding="UTF-8"?>
<!--Generator: Apple Native CoreSVG 232.5-->
<!DOCTYPE svg
PUBLIC "-//W3C//DTD SVG 1.1//EN"
       "http://www.w3.org/Graphics/SVG/1.1/DTD/svg11.dtd">
<svg version="1.1" xmlns="http://www.w3.org/2000/svg" xmlns:xlink="http://www.w3.org/1999/xlink" width="17.625" height="17.1641">
 <g>
  <rect height="17.1641" opacity="0" width="17.625" x="0" y="0"/>
  <path d="M4.80469 17.1641C5.1875 17.1641 5.45312 16.9609 5.92969 16.5391L8.625 14.1406L13.6406 14.1406C15.9688 14.1406 17.2188 12.8516 17.2188 10.5625L17.2188 4.57812C17.2188 2.28906 15.9688 1 13.6406 1L3.57812 1C1.25 1 0 2.28125 0 4.57812L0 10.5625C0 12.8594 1.25 14.1406 3.57812 14.1406L3.95312 14.1406L3.95312 16.1719C3.95312 16.7734 4.25781 17.1641 4.80469 17.1641ZM5.125 15.7344L5.125 13.4688C5.125 13.0469 4.96094 12.8828 4.53906 12.8828L3.57812 12.8828C2 12.8828 1.25781 12.0781 1.25781 10.5547L1.25781 4.57812C1.25781 3.05469 2 2.25781 3.57812 2.25781L13.6406 2.25781C15.2109 2.25781 15.9609 3.05469 15.9609 4.57812L15.9609 10.5547C15.9609 12.0781 15.2109 12.8828 13.6406 12.8828L8.57812 12.8828C8.14062 12.8828 7.92188 12.9453 7.625 13.25Z" fill="#ffffff" fill-opacity="0.85"/>
  <path d="M4.58594 5.41406L12.5391 5.41406C12.7891 5.41406 12.9844 5.21875 12.9844 4.96094C12.9844 4.71875 12.7891 4.51562 12.5391 4.51562L4.58594 4.51562C4.33594 4.51562 4.13281 4.71875 4.13281 4.96094C4.13281 5.21875 4.33594 5.41406 4.58594 5.41406ZM4.58594 7.96094L12.5391 7.96094C12.7891 7.96094 12.9844 7.75781 12.9844 7.5C12.9844 7.25781 12.7891 7.05469 12.5391 7.05469L4.58594 7.05469C4.33594 7.05469 4.13281 7.25781 4.13281 7.5C4.13281 7.75781 4.33594 7.96094 4.58594 7.96094ZM4.58594 10.5L9.75781 10.5C10.0078 10.5 10.2031 10.3047 10.2031 10.0547C10.2031 9.79688 10.0078 9.59375 9.75781 9.59375L4.58594 9.59375C4.33594 9.59375 4.13281 9.79688 4.13281 10.0547C4.13281 10.3047 4.33594 10.5 4.58594 10.5Z" fill="#ffffff" fill-opacity="0.85"/>
 </g>
</svg>
