<?xml version="1.0" encoding="UTF-8"?>
<!--Generator: Apple Native CoreSVG 232.5-->
<!DOCTYPE svg
PUBLIC "-//W3C//DTD SVG 1.1//EN"
       "http://www.w3.org/Graphics/SVG/1.1/DTD/svg11.dtd">
<svg version="1.1" xmlns="http://www.w3.org/2000/svg" xmlns:xlink="http://www.w3.org/1999/xlink" width="19.6016" height="14.3984">
 <g>
  <rect height="14.3984" opacity="0" width="19.6016" x="0" y="0"/>
  <path d="M2.83594 14.3984L16.3594 14.3984C18 14.3984 18.8125 13.5859 18.8125 11.9766L18.8125 9.67188C18.8125 9.26562 18.5859 9.03906 18.1797 9.03906C17.7734 9.03906 17.5547 9.26562 17.5547 9.67188L17.5547 11.9141C17.5547 12.7266 17.1094 13.1406 16.3438 13.1406L2.85938 13.1406C2.07812 13.1406 1.64844 12.7266 1.64844 11.9141L1.64844 9.67188C1.64844 9.26562 1.41406 9.03906 1.01562 9.03906C0.617188 9.03906 0.390625 9.26562 0.390625 9.67188L0.390625 11.9766C0.390625 13.5938 1.21094 14.3984 2.83594 14.3984ZM2.83594 0.015625C1.21094 0.015625 0.390625 0.820312 0.390625 2.4375L0.390625 4.35156C0.390625 4.75781 0.617188 4.99219 1.01562 4.99219C1.41406 4.99219 1.64844 4.75781 1.64844 4.35156L1.64844 2.5C1.64844 1.6875 2.07812 1.27344 2.85938 1.27344L16.3438 1.27344C17.1094 1.27344 17.5547 1.6875 17.5547 2.5L17.5547 4.35156C17.5547 4.75781 17.7812 4.99219 18.1797 4.99219C18.5938 4.99219 18.8125 4.75781 18.8125 4.35156L18.8125 2.4375C18.8125 0.828125 18 0.015625 16.3594 0.015625ZM1.01562 8.02344C1.57812 8.02344 2.03125 7.5625 2.03125 7C2.03125 6.44531 1.57812 5.99219 1.01562 5.99219C0.460938 5.99219 0 6.44531 0 7C0 7.5625 0.460938 8.02344 1.01562 8.02344ZM18.1797 8.02344C18.7344 8.02344 19.1953 7.5625 19.1953 7C19.1953 6.44531 18.7344 5.99219 18.1797 5.99219C17.6172 5.99219 17.1641 6.4375 17.1641 7C17.1641 7.5625 17.6172 8.02344 18.1797 8.02344Z" fill="#ffffff" fill-opacity="0.85"/>
  <path d="M7.03906 10.875C7.32031 10.875 7.51562 10.7422 7.63281 10.375L8.20312 8.71094L11 8.71094L11.5703 10.375C11.6875 10.7344 11.8906 10.875 12.1719 10.875C12.5156 10.875 12.75 10.6484 12.75 10.3359C12.75 10.2109 12.7266 10.1016 12.6641 9.92969L10.4766 4.03125C10.3203 3.625 10.0234 3.41406 9.59375 3.41406C9.17188 3.41406 8.88281 3.625 8.73438 4.03125L6.53906 9.92969C6.48438 10.1016 6.45312 10.2109 6.45312 10.3281C6.45312 10.6562 6.6875 10.875 7.03906 10.875ZM8.52344 7.77344L9.5625 4.75L9.64844 4.75L10.6875 7.77344Z" fill="#ffffff" fill-opacity="0.85"/>
 </g>
</svg>
