<?xml version="1.0" encoding="UTF-8"?>
<!--Generator: Apple Native CoreSVG 232.5-->
<!DOCTYPE svg
PUBLIC "-//W3C//DTD SVG 1.1//EN"
       "http://www.w3.org/Graphics/SVG/1.1/DTD/svg11.dtd">
<svg version="1.1" xmlns="http://www.w3.org/2000/svg" xmlns:xlink="http://www.w3.org/1999/xlink" width="7.38281" height="8.30469">
 <g>
  <rect height="8.30469" opacity="0" width="7.38281" x="0" y="0"/>
  <path d="M0.648438 8.30469C0.96875 8.30469 1.17969 8.14062 1.30469 7.75781L1.95312 5.84375L5.00781 5.84375L5.65625 7.75781C5.78125 8.15625 5.99219 8.30469 6.32031 8.30469C6.71094 8.30469 6.97656 8.0625 6.97656 7.71094C6.97656 7.55469 6.9375 7.40625 6.875 7.24219L4.44531 0.789062C4.26562 0.3125 3.9375 0.0625 3.47656 0.0625C3.02344 0.0625 2.69531 0.296875 2.51562 0.789062L0.0859375 7.24219C0.0234375 7.39062 0 7.54688 0 7.71094C0 8.07031 0.25 8.30469 0.648438 8.30469ZM2.29688 4.82812L3.39062 1.57031L3.57031 1.57031L4.66406 4.82812Z" fill="#ffffff" fill-opacity="0.85"/>
 </g>
</svg>
