<?xml version="1.0" encoding="UTF-8"?>
<!--Generator: Apple Native CoreSVG 232.5-->
<!DOCTYPE svg
PUBLIC "-//W3C//DTD SVG 1.1//EN"
       "http://www.w3.org/Graphics/SVG/1.1/DTD/svg11.dtd">
<svg version="1.1" xmlns="http://www.w3.org/2000/svg" xmlns:xlink="http://www.w3.org/1999/xlink" width="18.7734" height="18.0234">
 <g>
  <rect height="18.0234" opacity="0" width="18.7734" x="0" y="0"/>
  <path d="M12.5344 4.53906L11.2856 4.53906C10.5524 2.56167 8.66627 1.1875 6.40625 1.1875C3.47656 1.1875 1.1875 3.48438 1.1875 6.40625C1.1875 8.85443 2.78596 10.8553 5.02344 11.4413L5.02344 12.6589C2.14873 12.0302 0 9.46999 0 6.40625C0 2.86719 2.86719 0 6.40625 0C9.2955 0 11.737 1.91095 12.5344 4.53906Z" fill="#ffffff" fill-opacity="0.85"/>
  <path d="M7.47656 17.2891L15.3203 17.2891C16.9453 17.2891 17.7734 16.4766 17.7734 14.8672L17.7734 6.96094C17.7734 5.35156 16.9453 4.53906 15.3203 4.53906L7.47656 4.53906C5.84375 4.53906 5.02344 5.35156 5.02344 6.96094L5.02344 14.8672C5.02344 16.4766 5.84375 17.2891 7.47656 17.2891ZM7.5 16.0312C6.71875 16.0312 6.28125 15.6094 6.28125 14.7969L6.28125 7.03125C6.28125 6.21875 6.71875 5.79688 7.5 5.79688L15.2969 5.79688C16.0781 5.79688 16.5156 6.21875 16.5156 7.03125L16.5156 14.7969C16.5156 15.6094 16.0781 16.0312 15.2969 16.0312Z" fill="#ffffff" fill-opacity="0.85"/>
 </g>
</svg>
