<?xml version="1.0" encoding="UTF-8"?>
<!--Generator: Apple Native CoreSVG 232.5-->
<!DOCTYPE svg
PUBLIC "-//W3C//DTD SVG 1.1//EN"
       "http://www.w3.org/Graphics/SVG/1.1/DTD/svg11.dtd">
<svg version="1.1" xmlns="http://www.w3.org/2000/svg" xmlns:xlink="http://www.w3.org/1999/xlink" width="18.8281" height="14.3984">
 <g>
  <rect height="14.3984" opacity="0" width="18.8281" x="0" y="0"/>
  <path d="M2.45312 14.3984L15.9688 14.3984C17.6094 14.3984 18.4219 13.5859 18.4219 11.9766L18.4219 2.4375C18.4219 0.828125 17.6094 0.015625 15.9688 0.015625L2.45312 0.015625C0.820312 0.015625 0 0.820312 0 2.4375L0 11.9766C0 13.5938 0.820312 14.3984 2.45312 14.3984ZM2.46875 13.1406C1.6875 13.1406 1.25781 12.7266 1.25781 11.9141L1.25781 2.5C1.25781 1.6875 1.6875 1.27344 2.46875 1.27344L15.9531 1.27344C16.7266 1.27344 17.1641 1.6875 17.1641 2.5L17.1641 11.9141C17.1641 12.7266 16.7266 13.1406 15.9531 13.1406ZM5.95312 13.3828L7.17969 13.3828L7.17969 1.03906L5.95312 1.03906ZM4.45312 4.17188C4.6875 4.17188 4.89844 3.96094 4.89844 3.73438C4.89844 3.5 4.6875 3.29688 4.45312 3.29688L2.77344 3.29688C2.53906 3.29688 2.33594 3.5 2.33594 3.73438C2.33594 3.96094 2.53906 4.17188 2.77344 4.17188ZM4.45312 6.19531C4.6875 6.19531 4.89844 5.98438 4.89844 5.75C4.89844 5.51562 4.6875 5.32031 4.45312 5.32031L2.77344 5.32031C2.53906 5.32031 2.33594 5.51562 2.33594 5.75C2.33594 5.98438 2.53906 6.19531 2.77344 6.19531ZM4.45312 8.21094C4.6875 8.21094 4.89844 8.01562 4.89844 7.78125C4.89844 7.54688 4.6875 7.34375 4.45312 7.34375L2.77344 7.34375C2.53906 7.34375 2.33594 7.54688 2.33594 7.78125C2.33594 8.01562 2.53906 8.21094 2.77344 8.21094Z" fill="#ffffff" fill-opacity="0.85"/>
 </g>
</svg>
