<?xml version="1.0" encoding="UTF-8"?>
<!--Generator: Apple Native CoreSVG 232.5-->
<!DOCTYPE svg
PUBLIC "-//W3C//DTD SVG 1.1//EN"
       "http://www.w3.org/Graphics/SVG/1.1/DTD/svg11.dtd">
<svg version="1.1" xmlns="http://www.w3.org/2000/svg" xmlns:xlink="http://www.w3.org/1999/xlink" width="30.137" height="18.0211">
 <g>
  <rect height="18.0211" opacity="0" width="30.137" x="0" y="0"/>
  <path d="M14.3364 11.7925L11.467 16.7567C11.3107 17.0457 10.9591 17.1395 10.6701 16.9754C10.3888 16.8113 10.2873 16.4442 10.4513 16.1629L13.6579 10.6185ZM20.2404 0.920714C20.7013 0.975402 21.3185 1.21759 21.881 1.54571C23.8341 2.67853 24.5685 4.42071 26.467 5.51446C27.2951 5.99103 28.0216 6.17071 28.3654 6.36603C28.7638 6.6004 28.9513 6.99103 28.7013 7.42071L25.5607 12.866C25.2091 13.4754 24.717 13.6473 24.1545 13.5926C23.6935 13.5379 23.0841 13.2957 22.5216 12.9598C20.5685 11.827 19.8263 10.0926 17.9357 8.99103C17.2951 8.63165 16.7248 8.43634 16.3576 8.29571L16.0702 8.79283L15.3922 7.61986L18.842 1.65509C19.1935 1.04571 19.6857 0.866027 20.2404 0.920714ZM16.9748 7.23321C17.4748 7.37384 18.0841 7.71759 18.5216 7.96759C20.5607 9.14728 21.256 10.8817 23.1154 11.9442C23.3107 12.0613 23.8966 12.3895 24.4591 12.4207L27.4279 7.28009C26.9201 7.13165 26.3185 6.79571 25.881 6.54571C23.842 5.36603 23.1388 3.63946 21.2873 2.56915C21.0841 2.45196 20.4982 2.11603 19.9435 2.09259Z" fill="#ffffff" fill-opacity="0.85"/>
  <path d="M19.2716 16.1629L10.8888 1.65509C10.5373 1.04571 10.0451 0.866027 9.48259 0.920714C9.02165 0.975402 8.40446 1.21759 7.84977 1.54571C5.89665 2.67853 5.15446 4.42071 3.25602 5.51446C2.4279 5.99103 1.70134 6.17071 1.35759 6.36603C0.959149 6.6004 0.779462 6.99103 1.02165 7.42071L4.16227 12.866C4.51384 13.4754 5.00602 13.6473 5.56852 13.5926C6.02946 13.5379 6.64665 13.2957 7.20134 12.9598C9.16227 11.827 9.89665 10.0926 11.7951 8.99103C12.4279 8.63165 13.006 8.43634 13.3732 8.29571L18.256 16.7567C18.4201 17.0457 18.7716 17.1395 19.0607 16.9754C19.3341 16.8113 19.4357 16.4442 19.2716 16.1629ZM12.7482 7.23321C12.2482 7.37384 11.6388 7.71759 11.2013 7.96759C9.16227 9.14728 8.46696 10.8817 6.6154 11.9442C6.41227 12.0613 5.82634 12.3895 5.27165 12.4207L2.3029 7.28009C2.81071 7.13165 3.41227 6.79571 3.84977 6.54571C5.88884 5.36603 6.58415 3.63946 8.43571 2.56915C8.63884 2.45196 9.22477 2.11603 9.78727 2.09259Z" fill="#ffffff" fill-opacity="0.85"/>
 </g>
</svg>
