<?xml version="1.0" encoding="UTF-8"?>
<!--Generator: Apple Native CoreSVG 232.5-->
<!DOCTYPE svg
PUBLIC "-//W3C//DTD SVG 1.1//EN"
       "http://www.w3.org/Graphics/SVG/1.1/DTD/svg11.dtd">
<svg version="1.1" xmlns="http://www.w3.org/2000/svg" xmlns:xlink="http://www.w3.org/1999/xlink" width="24.6016" height="11.5391">
 <g>
  <rect height="11.5391" opacity="0" width="24.6016" x="0" y="0"/>
  <path d="M20.8281 11.5391C22.3594 11.5391 23.6797 10.6953 24.125 9.5C24.1641 9.36719 24.1953 9.24219 24.1953 9.13281C24.1953 8.79688 23.9531 8.5625 23.625 8.5625C23.3281 8.5625 23.1797 8.67969 23 9.02344C22.5938 9.91406 21.8906 10.3984 20.8359 10.3984C19.3047 10.3984 18.3047 9.1875 18.3047 7.23438C18.3047 5.29688 19.3125 4.05469 20.8359 4.05469C21.8438 4.05469 22.5703 4.53125 22.9844 5.44531C23.1562 5.77344 23.3125 5.89062 23.6016 5.89062C23.9375 5.89062 24.1719 5.67188 24.1719 5.32812C24.1719 5.23438 24.1406 5.11719 24.1172 5.01562C23.7266 3.82031 22.3906 2.91406 20.8047 2.91406C18.4766 2.91406 16.9531 4.625 16.9531 7.24219C16.9531 9.875 18.4922 11.5391 20.8281 11.5391Z" fill="#ffffff" fill-opacity="0.85"/>
  <path d="M9.04688 11.5312C9.42188 11.5312 9.69531 11.2734 9.69531 10.875L9.69531 9.75L9.71875 9.75C10.2266 10.8516 11.25 11.5391 12.5391 11.5391C14.6719 11.5391 16.0781 9.84375 16.0781 7.22656C16.0781 4.60938 14.6641 2.91406 12.5547 2.91406C11.2891 2.91406 10.2578 3.60938 9.77344 4.69531L9.73438 4.69531L9.73438 0.703125C9.73438 0.28125 9.46875 0.0078125 9.07812 0.0078125C8.67969 0.0078125 8.41406 0.28125 8.41406 0.703125L8.41406 10.875C8.41406 11.2812 8.67188 11.5312 9.04688 11.5312ZM12.25 10.3984C10.7734 10.3984 9.73438 9.14062 9.73438 7.23438C9.73438 5.32031 10.7812 4.0625 12.25 4.0625C13.7656 4.0625 14.7188 5.28906 14.7188 7.22656C14.7188 9.17969 13.7578 10.3984 12.25 10.3984Z" fill="#ffffff" fill-opacity="0.85"/>
  <path d="M2.78125 11.5312C3.97656 11.5312 5.09375 10.8828 5.57031 9.88281L5.59375 9.88281L5.59375 10.8984C5.59375 11.2812 5.85938 11.5391 6.22656 11.5391C6.60938 11.5391 6.86719 11.2812 6.86719 10.8672L6.86719 5.69531C6.86719 4 5.625 2.91406 3.66406 2.91406C2.19531 2.91406 0.992188 3.55469 0.539062 4.55469C0.453125 4.74219 0.398438 4.92969 0.398438 5.09375C0.398438 5.4375 0.648438 5.66406 0.984375 5.66406C1.22656 5.66406 1.41406 5.57031 1.53125 5.35156C1.96094 4.46094 2.625 4.03906 3.625 4.03906C4.83594 4.03906 5.54688 4.71094 5.54688 5.79688L5.54688 6.46094L3.05469 6.60156C1.09375 6.71094 0 7.61719 0 9.05469C0 10.5469 1.14062 11.5312 2.78125 11.5312ZM3.10156 10.4453C2.05469 10.4453 1.35156 9.875 1.35156 9.03125C1.35156 8.21094 2.00781 7.66406 3.21875 7.58594L5.54688 7.4375L5.54688 8.25C5.54688 9.48438 4.46094 10.4453 3.10156 10.4453Z" fill="#ffffff" fill-opacity="0.85"/>
 </g>
</svg>
