<?xml version="1.0" encoding="UTF-8"?>
<!--Generator: Apple Native CoreSVG 232.5-->
<!DOCTYPE svg
PUBLIC "-//W3C//DTD SVG 1.1//EN"
       "http://www.w3.org/Graphics/SVG/1.1/DTD/svg11.dtd">
<svg version="1.1" xmlns="http://www.w3.org/2000/svg" xmlns:xlink="http://www.w3.org/1999/xlink" width="15.6719" height="15.4141">
 <g>
  <rect height="15.4141" opacity="0" width="15.6719" x="0" y="0"/>
  <path d="M0 6.23438C0 9.67188 2.79688 12.4688 6.23438 12.4688C7.59375 12.4688 8.83594 12.0312 9.85938 11.2969L13.7031 15.1484C13.8828 15.3281 14.1172 15.4141 14.3672 15.4141C14.8984 15.4141 15.2656 15.0156 15.2656 14.4922C15.2656 14.2422 15.1719 14.0156 15.0078 13.8516L11.1875 10.0078C11.9922 8.96094 12.4688 7.65625 12.4688 6.23438C12.4688 2.79688 9.67188 0 6.23438 0C2.79688 0 0 2.79688 0 6.23438ZM1.33594 6.23438C1.33594 3.53125 3.53125 1.33594 6.23438 1.33594C8.9375 1.33594 11.1328 3.53125 11.1328 6.23438C11.1328 8.9375 8.9375 11.1328 6.23438 11.1328C3.53125 11.1328 1.33594 8.9375 1.33594 6.23438Z" fill="#ffffff" fill-opacity="0.85"/>
  <path d="M6.24219 9.51562C6.36719 9.51562 6.46875 9.41406 6.5 9.28906C6.89062 7.17188 7.08594 6.78125 9.28125 6.48438C9.42188 6.46875 9.51562 6.36719 9.51562 6.23438C9.51562 6.10156 9.42188 6 9.28125 5.96875C7.09375 5.67188 6.8125 5.26562 6.5 3.1875C6.47656 3.04688 6.36719 2.95312 6.24219 2.95312C6.10938 2.95312 6.00781 3.03906 5.97656 3.17969C5.57812 5.30469 5.39062 5.67188 3.19531 5.96875C3.05469 6 2.96094 6.10156 2.96094 6.23438C2.96094 6.36719 3.05469 6.46094 3.19531 6.48438C5.39062 6.70312 5.67188 7.17188 5.97656 9.28125C6 9.41406 6.10156 9.51562 6.24219 9.51562Z" fill="#ffffff" fill-opacity="0.85"/>
 </g>
</svg>
