<?xml version="1.0" encoding="UTF-8"?>
<!--Generator: Apple Native CoreSVG 232.5-->
<!DOCTYPE svg
PUBLIC "-//W3C//DTD SVG 1.1//EN"
       "http://www.w3.org/Graphics/SVG/1.1/DTD/svg11.dtd">
<svg version="1.1" xmlns="http://www.w3.org/2000/svg" xmlns:xlink="http://www.w3.org/1999/xlink" width="16.375" height="16.6641">
 <g>
  <rect height="16.6641" opacity="0" width="16.375" x="0" y="0"/>
  <path d="M15.0859 10.625C15.7188 11 15.9688 11.2812 15.9688 11.7109C15.9688 12.1406 15.7188 12.4219 15.0859 12.7891L8.97656 16.3438C8.60156 16.5625 8.29688 16.6641 7.98438 16.6641C7.66406 16.6641 7.36719 16.5625 6.99219 16.3438L0.875 12.7891C0.242188 12.4219 0 12.1406 0 11.7109C0 11.2812 0.242188 11 0.875 10.625L4.52645 8.50781L6.99219 9.9375C7.36719 10.1562 7.66406 10.2578 7.98438 10.2578C8.29688 10.2578 8.60156 10.1562 8.97656 9.9375L11.4392 8.50781Z" fill="#ffffff" fill-opacity="0.85"/>
  <path d="M7.98438 10.2578C8.29688 10.2578 8.60156 10.1562 8.97656 9.9375L15.0859 6.39062C15.7188 6.01562 15.9688 5.73438 15.9688 5.30469C15.9688 4.875 15.7188 4.59375 15.0859 4.22656L8.97656 0.671875C8.60156 0.453125 8.29688 0.351562 7.98438 0.351562C7.66406 0.351562 7.36719 0.453125 6.99219 0.671875L0.875 4.22656C0.242188 4.59375 0 4.875 0 5.30469C0 5.73438 0.242188 6.01562 0.875 6.39062L6.99219 9.9375C7.36719 10.1562 7.66406 10.2578 7.98438 10.2578ZM7.98438 8.89062C7.875 8.89062 7.76562 8.85938 7.63281 8.78125L1.6875 5.38281C1.65625 5.36719 1.63281 5.34375 1.63281 5.30469C1.63281 5.26562 1.65625 5.25 1.6875 5.22656L7.63281 1.82812C7.76562 1.75781 7.875 1.71875 7.98438 1.71875C8.09375 1.71875 8.20312 1.75781 8.32812 1.82812L14.2734 5.22656C14.3125 5.25 14.3359 5.26562 14.3359 5.30469C14.3359 5.34375 14.3125 5.36719 14.2734 5.38281L8.32812 8.78125C8.20312 8.85938 8.09375 8.89062 7.98438 8.89062Z" fill="#ffffff" fill-opacity="0.85"/>
 </g>
</svg>
