<?xml version="1.0" encoding="UTF-8"?>
<!--Generator: Apple Native CoreSVG 232.5-->
<!DOCTYPE svg
PUBLIC "-//W3C//DTD SVG 1.1//EN"
       "http://www.w3.org/Graphics/SVG/1.1/DTD/svg11.dtd">
<svg version="1.1" xmlns="http://www.w3.org/2000/svg" xmlns:xlink="http://www.w3.org/1999/xlink" width="14.2734" height="21.1797">
 <g>
  <rect height="21.1797" opacity="0" width="14.2734" x="0" y="0"/>
  <path d="M13.8672 8.60938L13.8672 16.4062C13.8672 18.0156 13.0469 18.8281 11.4141 18.8281L2.45312 18.8281C0.820312 18.8281 0 18.0156 0 16.4062L0 8.60938C0 7 0.820312 6.1875 2.45312 6.1875L4.80469 6.1875L4.80469 7.44531L2.46875 7.44531C1.6875 7.44531 1.25781 7.86719 1.25781 8.67969L1.25781 16.3359C1.25781 17.1484 1.6875 17.5703 2.46875 17.5703L11.3906 17.5703C12.1641 17.5703 12.6094 17.1484 12.6094 16.3359L12.6094 8.67969C12.6094 7.86719 12.1641 7.44531 11.3906 7.44531L9.0625 7.44531L9.0625 6.1875L11.4141 6.1875C13.0469 6.1875 13.8672 7 13.8672 8.60938Z" fill="#ffffff" fill-opacity="0.85"/>
  <path d="M6.92969 12.7109C7.26562 12.7109 7.55469 12.4297 7.55469 12.1016L7.55469 4.07812L7.50781 2.90625L8.03125 3.46094L9.21875 4.72656C9.32812 4.85156 9.48438 4.91406 9.64062 4.91406C9.96094 4.91406 10.2109 4.67969 10.2109 4.35938C10.2109 4.19531 10.1406 4.07031 10.0234 3.95312L7.38281 1.40625C7.22656 1.25 7.09375 1.19531 6.92969 1.19531C6.77344 1.19531 6.64062 1.25 6.47656 1.40625L3.83594 3.95312C3.71875 4.07031 3.65625 4.19531 3.65625 4.35938C3.65625 4.67969 3.89062 4.91406 4.21875 4.91406C4.36719 4.91406 4.53906 4.85156 4.64844 4.72656L5.82812 3.46094L6.35938 2.90625L6.3125 4.07812L6.3125 12.1016C6.3125 12.4297 6.59375 12.7109 6.92969 12.7109Z" fill="#ffffff" fill-opacity="0.85"/>
 </g>
</svg>
