<?xml version="1.0" encoding="UTF-8"?>
<!--Generator: Apple Native CoreSVG 232.5-->
<!DOCTYPE svg
PUBLIC "-//W3C//DTD SVG 1.1//EN"
       "http://www.w3.org/Graphics/SVG/1.1/DTD/svg11.dtd">
<svg version="1.1" xmlns="http://www.w3.org/2000/svg" xmlns:xlink="http://www.w3.org/1999/xlink" width="9.89062" height="11.5547">
 <g>
  <rect height="11.5547" opacity="0" width="9.89062" x="0" y="0"/>
  <path d="M0.65625 11.5391C1.07031 11.5391 1.27344 11.3828 1.42188 10.9453L2.42969 8.1875L7.03906 8.1875L8.04688 10.9453C8.19531 11.3828 8.39844 11.5391 8.80469 11.5391C9.21875 11.5391 9.48438 11.2891 9.48438 10.8984C9.48438 10.7656 9.46094 10.6406 9.39844 10.4766L5.73438 0.71875C5.55469 0.242188 5.23438 0 4.73438 0C4.25 0 3.92188 0.234375 3.75 0.710938L0.0859375 10.4844C0.0234375 10.6484 0 10.7734 0 10.9062C0 11.2969 0.25 11.5391 0.65625 11.5391ZM2.8125 7L4.71094 1.74219L4.75 1.74219L6.64844 7Z" fill="#ffffff" fill-opacity="0.85"/>
 </g>
</svg>
